<mxfile host="app.diagrams.net" modified="2022-11-09T03:20:37.100Z" agent="5.0 (Windows NT 10.0; Win64; x64) AppleWebKit/537.36 (KHTML, like Gecko) Chrome/106.0.0.0 Safari/537.36" etag="l5Vj78OeccP0Sdr8jiUa" version="20.5.3" type="github">
  <diagram id="nQOv96Kn8g1E1iUqbzxE" name="Page-1">
    <mxGraphModel dx="1178" dy="655" grid="1" gridSize="10" guides="1" tooltips="1" connect="1" arrows="1" fold="1" page="1" pageScale="1" pageWidth="827" pageHeight="1169" math="0" shadow="0">
      <root>
        <mxCell id="0" />
        <mxCell id="1" parent="0" />
        <mxCell id="6Nq6n4FKqv7ROmzl2t7v-12" style="edgeStyle=orthogonalEdgeStyle;rounded=0;orthogonalLoop=1;jettySize=auto;html=1;exitX=1;exitY=0.5;exitDx=0;exitDy=0;entryX=0;entryY=0.5;entryDx=0;entryDy=0;fillColor=#1ba1e2;strokeColor=#006EAF;" edge="1" parent="1" source="6Nq6n4FKqv7ROmzl2t7v-2" target="6Nq6n4FKqv7ROmzl2t7v-3">
          <mxGeometry relative="1" as="geometry" />
        </mxCell>
        <mxCell id="6Nq6n4FKqv7ROmzl2t7v-2" value="" style="ellipse;whiteSpace=wrap;html=1;strokeColor=#006EAF;fillColor=#1ba1e2;fontColor=#ffffff;" vertex="1" parent="1">
          <mxGeometry x="160" y="170" width="20" height="20" as="geometry" />
        </mxCell>
        <mxCell id="6Nq6n4FKqv7ROmzl2t7v-22" style="edgeStyle=orthogonalEdgeStyle;rounded=0;orthogonalLoop=1;jettySize=auto;html=1;exitX=0.5;exitY=0;exitDx=0;exitDy=0;entryX=0.5;entryY=0;entryDx=0;entryDy=0;curved=1;fillColor=#1ba1e2;strokeColor=#006EAF;" edge="1" parent="1" source="6Nq6n4FKqv7ROmzl2t7v-3" target="6Nq6n4FKqv7ROmzl2t7v-7">
          <mxGeometry relative="1" as="geometry" />
        </mxCell>
        <mxCell id="6Nq6n4FKqv7ROmzl2t7v-28" style="edgeStyle=orthogonalEdgeStyle;curved=1;rounded=0;orthogonalLoop=1;jettySize=auto;html=1;exitX=0.5;exitY=1;exitDx=0;exitDy=0;entryX=0.5;entryY=1;entryDx=0;entryDy=0;fillColor=#1ba1e2;strokeColor=#006EAF;" edge="1" parent="1" source="6Nq6n4FKqv7ROmzl2t7v-3" target="6Nq6n4FKqv7ROmzl2t7v-2">
          <mxGeometry relative="1" as="geometry" />
        </mxCell>
        <mxCell id="6Nq6n4FKqv7ROmzl2t7v-3" value="" style="ellipse;whiteSpace=wrap;html=1;strokeColor=#006EAF;fillColor=#1ba1e2;fontColor=#ffffff;" vertex="1" parent="1">
          <mxGeometry x="220" y="170" width="20" height="20" as="geometry" />
        </mxCell>
        <mxCell id="6Nq6n4FKqv7ROmzl2t7v-24" style="edgeStyle=orthogonalEdgeStyle;curved=1;rounded=0;orthogonalLoop=1;jettySize=auto;html=1;exitX=1;exitY=0.5;exitDx=0;exitDy=0;entryX=0;entryY=0.5;entryDx=0;entryDy=0;fillColor=#1ba1e2;strokeColor=#006EAF;" edge="1" parent="1" source="6Nq6n4FKqv7ROmzl2t7v-4" target="6Nq6n4FKqv7ROmzl2t7v-5">
          <mxGeometry relative="1" as="geometry" />
        </mxCell>
        <mxCell id="6Nq6n4FKqv7ROmzl2t7v-4" value="" style="ellipse;whiteSpace=wrap;html=1;strokeColor=#006EAF;fillColor=#1ba1e2;fontColor=#ffffff;" vertex="1" parent="1">
          <mxGeometry x="278" y="170" width="20" height="20" as="geometry" />
        </mxCell>
        <mxCell id="6Nq6n4FKqv7ROmzl2t7v-26" style="edgeStyle=orthogonalEdgeStyle;curved=1;rounded=0;orthogonalLoop=1;jettySize=auto;html=1;exitX=1;exitY=0.5;exitDx=0;exitDy=0;entryX=0;entryY=0.5;entryDx=0;entryDy=0;fillColor=#1ba1e2;strokeColor=#006EAF;" edge="1" parent="1" source="6Nq6n4FKqv7ROmzl2t7v-5" target="6Nq6n4FKqv7ROmzl2t7v-7">
          <mxGeometry relative="1" as="geometry" />
        </mxCell>
        <mxCell id="6Nq6n4FKqv7ROmzl2t7v-5" value="" style="ellipse;whiteSpace=wrap;html=1;strokeColor=#006EAF;fillColor=#1ba1e2;fontColor=#ffffff;" vertex="1" parent="1">
          <mxGeometry x="340" y="170" width="20" height="20" as="geometry" />
        </mxCell>
        <mxCell id="6Nq6n4FKqv7ROmzl2t7v-23" style="edgeStyle=orthogonalEdgeStyle;curved=1;rounded=0;orthogonalLoop=1;jettySize=auto;html=1;exitX=0.5;exitY=1;exitDx=0;exitDy=0;entryX=0.5;entryY=1;entryDx=0;entryDy=0;fillColor=#1ba1e2;strokeColor=#006EAF;" edge="1" parent="1" source="6Nq6n4FKqv7ROmzl2t7v-7" target="6Nq6n4FKqv7ROmzl2t7v-3">
          <mxGeometry relative="1" as="geometry" />
        </mxCell>
        <mxCell id="6Nq6n4FKqv7ROmzl2t7v-31" style="edgeStyle=orthogonalEdgeStyle;curved=1;rounded=0;orthogonalLoop=1;jettySize=auto;html=1;exitX=0;exitY=1;exitDx=0;exitDy=0;entryX=1;entryY=1;entryDx=0;entryDy=0;fillColor=#1ba1e2;strokeColor=#006EAF;" edge="1" parent="1" source="6Nq6n4FKqv7ROmzl2t7v-7" target="6Nq6n4FKqv7ROmzl2t7v-5">
          <mxGeometry relative="1" as="geometry" />
        </mxCell>
        <mxCell id="6Nq6n4FKqv7ROmzl2t7v-7" value="" style="ellipse;whiteSpace=wrap;html=1;strokeColor=#006EAF;fillColor=#1ba1e2;fontColor=#ffffff;" vertex="1" parent="1">
          <mxGeometry x="394" y="170" width="20" height="20" as="geometry" />
        </mxCell>
        <mxCell id="6Nq6n4FKqv7ROmzl2t7v-32" value="&lt;font face=&quot;Courier New&quot;&gt;&lt;b&gt;A&lt;/b&gt;&lt;/font&gt;" style="whiteSpace=wrap;html=1;strokeColor=none;fillColor=none;" vertex="1" parent="1">
          <mxGeometry x="110" y="200" width="120" height="60" as="geometry" />
        </mxCell>
        <mxCell id="6Nq6n4FKqv7ROmzl2t7v-33" value="&lt;font face=&quot;Courier New&quot;&gt;&lt;b&gt;B&lt;/b&gt;&lt;/font&gt;" style="whiteSpace=wrap;html=1;strokeColor=none;fillColor=none;" vertex="1" parent="1">
          <mxGeometry x="170" y="200" width="120" height="60" as="geometry" />
        </mxCell>
        <mxCell id="6Nq6n4FKqv7ROmzl2t7v-34" value="&lt;font face=&quot;Courier New&quot;&gt;&lt;b&gt;C&lt;/b&gt;&lt;/font&gt;" style="whiteSpace=wrap;html=1;strokeColor=none;fillColor=none;" vertex="1" parent="1">
          <mxGeometry x="228" y="200" width="120" height="60" as="geometry" />
        </mxCell>
        <mxCell id="6Nq6n4FKqv7ROmzl2t7v-35" value="&lt;font face=&quot;Courier New&quot;&gt;&lt;b&gt;D&lt;/b&gt;&lt;/font&gt;" style="whiteSpace=wrap;html=1;strokeColor=none;fillColor=none;" vertex="1" parent="1">
          <mxGeometry x="290" y="200" width="120" height="60" as="geometry" />
        </mxCell>
        <mxCell id="6Nq6n4FKqv7ROmzl2t7v-36" value="&lt;font face=&quot;Courier New&quot;&gt;&lt;b&gt;E&lt;/b&gt;&lt;/font&gt;" style="whiteSpace=wrap;html=1;strokeColor=none;fillColor=none;" vertex="1" parent="1">
          <mxGeometry x="344" y="200" width="120" height="60" as="geometry" />
        </mxCell>
        <mxCell id="6Nq6n4FKqv7ROmzl2t7v-38" value="" style="endArrow=classic;html=1;rounded=0;fontFamily=Courier New;curved=1;exitX=1;exitY=0.5;exitDx=0;exitDy=0;fillColor=#e51400;strokeColor=#B20000;" edge="1" parent="1" source="6Nq6n4FKqv7ROmzl2t7v-7">
          <mxGeometry width="50" height="50" relative="1" as="geometry">
            <mxPoint x="460" y="230" as="sourcePoint" />
            <mxPoint x="450" y="180" as="targetPoint" />
          </mxGeometry>
        </mxCell>
        <mxCell id="6Nq6n4FKqv7ROmzl2t7v-39" value="..." style="whiteSpace=wrap;html=1;strokeColor=none;fontFamily=Courier New;fillColor=none;" vertex="1" parent="1">
          <mxGeometry x="440" y="155" width="50" height="50" as="geometry" />
        </mxCell>
        <mxCell id="6Nq6n4FKqv7ROmzl2t7v-40" value="" style="endArrow=classic;html=1;rounded=0;fontFamily=Courier New;curved=1;fillColor=#e51400;strokeColor=#B20000;entryX=0;entryY=0.5;entryDx=0;entryDy=0;" edge="1" parent="1" target="6Nq6n4FKqv7ROmzl2t7v-2">
          <mxGeometry width="50" height="50" relative="1" as="geometry">
            <mxPoint x="130" y="180" as="sourcePoint" />
            <mxPoint x="130" y="170" as="targetPoint" />
          </mxGeometry>
        </mxCell>
        <mxCell id="6Nq6n4FKqv7ROmzl2t7v-41" value="..." style="whiteSpace=wrap;html=1;strokeColor=none;fontFamily=Courier New;fillColor=none;" vertex="1" parent="1">
          <mxGeometry x="90" y="155" width="50" height="50" as="geometry" />
        </mxCell>
      </root>
    </mxGraphModel>
  </diagram>
</mxfile>
